<svg id="Layer_1" data-name="Layer 1" xmlns="http://www.w3.org/2000/svg" viewBox="0 0 289.14 312.16"  width="289.14" height="312.16" preserveAspectRatio="xMinYMin"><defs><style>.cls-1{fill:#fff}</style></defs><title>WTrusts with paths</title><path d="M153.27 422.06V267.39c0-1 .21-1.25 1.24-1.25h286.61c1.16 0 1.28.32 1.28 1.35v309.48c0 1.09-.2 1.32-1.31 1.32H154.61c-1.23 0-1.35-.36-1.35-1.42q.03-77.41.01-154.81z" transform="translate(-153.25 -266.13)"/><path class="cls-1" d="M157.87 421.93V272.66c0-1.41.4-1.66 1.71-1.65h276.48c1.38 0 1.76.31 1.76 1.74q-.06 149.34 0 298.68c0 1.45-.41 1.72-1.77 1.72H159.7c-1.79 0-1.79 0-1.79-1.77q-.04-74.75-.04-149.45z" transform="translate(-153.25 -266.13)"/><path d="M429.63 422.34v141c0 1.41-.39 1.66-1.7 1.66h-260c-1.38 0-1.77-.3-1.76-1.73q.06-141.08 0-282.17c0-1.44.4-1.73 1.77-1.73h259.84c1.8 0 1.8 0 1.8 1.77q.05 70.63.05 141.2z" transform="translate(-153.25 -266.13)"/><path class="cls-1" d="M243.11 328.42a32.52 32.52 0 0 0 5.81-.07c2.88-.53 5 .81 7.1 2.28 2 1.36 4 2.63 6 4 1.67 1.17 3.3 2.4 4.88 3.69a16.12 16.12 0 0 1 4.1 5.08 3.29 3.29 0 0 1 .51 1.71v.41c0 4.61.05 4.53 3.91 7a33.41 33.41 0 0 0 5.73 3.15c1.13.45 1 1.06.68 2s-1.26 1.61.08 2.54c.7.49 1.12.52 1.71.09 1.35-1 2.77-1.92 4-3a4.3 4.3 0 0 1 4.77-.61c2.24.92 4.6 1.15 6.89 1.78a18.25 18.25 0 0 0 2.42.68c1.44.19 2.1 2.1 2 3.16a51.64 51.64 0 0 0-.48 9 1.54 1.54 0 0 1-1.44 1.81c-2 .37-3.93 1.33-6.11 1.16-1.46-.11-2.83 2.49-2.23 3.78a58 58 0 0 1 2.17 6.43 18.27 18.27 0 0 0 1.07 3.49 2.92 2.92 0 0 1 .21 2.48 40 40 0 0 0-1.69 7c-.24 1.1 1.73 3.54 2.85 3.53.49 0 .69-.27.86-.69a11.36 11.36 0 0 1 7-6.59A4 4 0 0 0 308 392c1.18-1.87 3.1-3.43 2.82-6-.45-4.07-.46-8.18-1-12.24-.28-2 .09-4-.32-6-.53-2.56-.27-5.23-1-7.77a1.17 1.17 0 0 1-.06-.53c.37-1.92-.66-3.62-.86-5.46-.09-.84-1-1.11-1.63-1.59-1.16-.93-2.51-1.79-2.61-3.41-.11-1.87-.37-3.72-.6-5.57-.38-3.08-.73-6.18-.94-9.25-.3-4.36-1.42-8.66-1-13.08.1-1 .83-.93 1.41-1 3.08-.36 3.11-.35 2.15-3.21s-1.81-5.59-2.58-8.41c-.54-2-1.71-3.78-1.79-5.91 0-1.05.36-1.39 1.37-1.46a17.27 17.27 0 0 0 3.7-.93c2.77-.84 5.29-.25 7.85.71 1 .39 2.06-.22 3-.47 1.22-.32 2.45-.34 3.66-.6s2.12.57 2.93 2.56a24.26 24.26 0 0 0 1.71 3.46 1.38 1.38 0 0 0 1.13.74c1.76.08 2.14.79 2.62 2.39.64 2.17.78 4.41 1.41 6.58a18.25 18.25 0 0 1 .63 4.18 37.39 37.39 0 0 0 1.2 5.81 57.74 57.74 0 0 1 1 7.08c.33 4.22-.31 8.4-.56 12.6-.1 1.62-.83 3.16-.83 4.83a2.42 2.42 0 0 0 .53 1.79 16.7 16.7 0 0 1 1.37 2 2.86 2.86 0 0 0 2.39 1.51c1.3.09 2.45 1 3.78 1.11a19.84 19.84 0 0 1 3.05.81c1 .27 1.33-.33 1.61-.91a127.79 127.79 0 0 1 6.86-12.5 54.41 54.41 0 0 0 3-5.73 55.72 55.72 0 0 1 4.57-8.16.57.57 0 0 1 .43-.24c2 .33 4 .15 6 .43s2.35 1.07 2.52 2.85a24.19 24.19 0 0 0 1.74 7.83 1.67 1.67 0 0 1-.14 1.54c-1.29 2.18-2.78 4.24-4.17 6.36-1.67 2.54-3.19 5.16-4.75 7.77a1.28 1.28 0 0 0-.06.8c.41 2.44-.54 4.54-1.72 6.54a19.32 19.32 0 0 0-2.91 7.64 22 22 0 0 1-2.24 7.4c-.7 1.38-2 2.42-3 3.7-1.19 1.64-2.9 2.76-4.19 4.3-.42.51-1.11.45-2 .32-3.9-.56-5.21-3.95-7.44-6.3a31.83 31.83 0 0 1-3.04-4.21.87.87 0 0 0-.94-.45c-1.71.11-3.19.95-4.77 1.45-.44.14-.29.52-.28.79.11 3.78-.53 7.52-.63 11.29a.93.93 0 0 0 .47.95c2.24 1.54 4.58 3 6.37 5.08a19 19 0 0 1 2.69 4.61.91.91 0 0 1 0 .66c-.87 2-1 4.16-1.81 6.15-.72 1.71-1.09 1.91-2.75 1a27.08 27.08 0 0 0-5.83-1.79 2.86 2.86 0 0 0-2.22.61c-1.45 1.24-3.2.84-4.81 1.16-2.09.41-4-.35-5.87-1.22-3.12-1.46-7.94-.72-10.22 1.74-.92 1-1.93 2.16-1.65 3.83.15.88 0 1.8 0 2.7s-.61 1-1.09.77c-2-1.12-4.32-1.81-5.08-4.5a7.23 7.23 0 0 1-.59-2.91 2.27 2.27 0 0 0-1.08-2 44.76 44.76 0 0 1-5.67-5.71c-1.71-2-3.41-4.06-5.12-6.1-3.17-3.77-6.21-7.65-9.27-11.51a17.59 17.59 0 0 0-5.93-4.82c-2.56-1.31-5-2.76-7.56-4.15-3-1.66-6.2-2.74-9.64-2.29a26.38 26.38 0 0 0-5.79 1.61 27.21 27.21 0 0 0-4.93 1.86c-1.68 1-3.54 1.7-5.25 2.75-2.6 1.59-5 3.43-7.75 4.91a44.47 44.47 0 0 0-7.7 5.32c-1.1 1-2.59 1.42-3.71 2.29-2.17 1.68-4.57 3-6.74 4.67a36.39 36.39 0 0 0-3.5 2.4c-.22.21-.51.24-.8-.1a22.37 22.37 0 0 1-2.73-3.91 1.18 1.18 0 0 1-.13-1 28.63 28.63 0 0 1 3.34-6.74 24.61 24.61 0 0 0 2.5-5.38 13.54 13.54 0 0 1 1-1.86c.46-1 .84-2 1.24-3a11 11 0 0 1 2-3.16c.45-.52.45-.72.07-1.18-1.66-2-2.31-4.44-3.33-6.71-.64-1.42 0-2.93.89-4.22a48.57 48.57 0 0 1 10.21-11.18 1.58 1.58 0 0 0 .65-2c-.46-1.36-1.06-2.67-1.63-4-1.48-3.45-.55-6.9 3.37-8.49a56.41 56.41 0 0 0 8.12-4 15.49 15.49 0 0 1 8.28-2.52c1.92.03 3.81.02 5.71.02zM301.33 493.26c-1.54 1.7-2.86 3.28-4.3 4.73a17 17 0 0 1-7.05 4.38c-4.47 1.37-7.83-.27-10.3-4.47a11.27 11.27 0 0 1-1.33-4.91c-.46-5.49.93-10.66 3-15.67a35.36 35.36 0 0 1 5.7-9.81 33.19 33.19 0 0 1 7.26-6.51 15.19 15.19 0 0 1 8.43-2.64 8 8 0 0 1 4.3 1.07c.78.49 1.35.54 1.52-.6.61-4.14 1.86-8.15 2.63-12.28a86.34 86.34 0 0 1 2.13-8.85 4.74 4.74 0 0 0 .17-2.11 1.8 1.8 0 0 0-1.82-1.61h-2.7c-.46 0-1.26.4-1.33-.4s-.43-1.62.55-2.26a6.87 6.87 0 0 1 3.64-1.06c2.6-.06 5-.89 7.58-1.26a19.63 19.63 0 0 0 2.36-.35c1.46-.4 2.42.67 2 2.15-1.27 4.72-2.16 9.52-3.4 14.25-1.32 5-2.18 10.15-3.35 15.21s-2.24 10-3.39 15.07c-.89 3.9-1.83 7.8-2.61 11.73-.35 1.73-1 3.35-.54 5.18.2.86.37 1.65 1.24 1.82a2.52 2.52 0 0 0 2.43-1.26 29.74 29.74 0 0 1 2.75-3.59 1.32 1.32 0 0 1 1.67-.4c.61.36.38 1 .19 1.56-1 2.94-3.13 5.1-4.85 7.54a12.61 12.61 0 0 1-5.26 4.33 5.32 5.32 0 0 1-4.16 0c-2.56-1.09-2.83-3.51-3.13-5.84a25.46 25.46 0 0 1-.03-3.14zM206.45 482.74c-1 2.49-2.17 4.68-3.31 6.87a36.8 36.8 0 0 1-6.59 8.8 18.36 18.36 0 0 1-5 3.5 7.81 7.81 0 0 1-4.86.47 3.55 3.55 0 0 1-2.6-2.32 15.2 15.2 0 0 1-1.24-6.06 20.55 20.55 0 0 1 .45-4.76 1.35 1.35 0 0 0-.88-1.82c-3.78-1.08-4.66-4.11-5.36-7.45s.34-6.64 1.27-9.76a16.33 16.33 0 0 1 3.46-5.8 19.19 19.19 0 0 1 4.73-4.41c2-1.11 4-2.5 6.54-1.65a4.52 4.52 0 0 1 3 3.06c1.11 3.2.1 6.25-.45 9.3-.91 5.07-2.17 10.08-3.05 15.15a25 25 0 0 0-.61 5.56c.06 1.21.13 2.37 1.48 3s2.42-.05 3.34-.94c2.39-2.32 3.92-5.22 5.5-8.11.92-1.7 1.71-3.44 2.5-5.2.49-1.08.88-2.19 1.34-3.28a99.09 99.09 0 0 0 4.14-11.79c.36-1.27.6-2.57.94-3.84a1.76 1.76 0 0 1 1.92-1.55c1.8.06 3.61 0 5.41 0 1.27 0 1.54.37 1.23 1.53-1.42 5.31-2.59 10.69-3.88 16a42.6 42.6 0 0 0-.89 12.53 7.06 7.06 0 0 0 1 3.24c1.11 1.8 3.37 1.33 4.71-.1a33.56 33.56 0 0 0 3.93-4.83 34.24 34.24 0 0 0 2.74-5.16 60.17 60.17 0 0 0 2.51-6.05 15.45 15.45 0 0 0-.16-9.9 7.13 7.13 0 0 1 .11-5.68c.79-1.6 2.56-3.15 4.58-3a2.72 2.72 0 0 1 2.48 2c1 2.82.18 5.56-.48 8.2a65.63 65.63 0 0 1-3.4 10.41c-1.47 3.38-3.22 6.66-5 9.9a35.62 35.62 0 0 1-7.16 9.07c-2.77 2.53-5.78 5-10 4.62a2.35 2.35 0 0 1-2.08-1.13 16.12 16.12 0 0 1-2.13-6.61 65 65 0 0 1-.3-8.47c0-1.1.53-2.18.12-3.54zM249.85 534a6 6 0 0 1 4.77 4.23 18.2 18.2 0 0 1 .64 5c0 1.58.31 3.11.34 4.68a8.46 8.46 0 0 0 1.15 3c-2.86 0-5.55.07-8.23 0-.89 0-.93-1-1.06-1.74-.44-2.54-.17-5.14-.76-7.69a4.89 4.89 0 0 0-3-3.7 9.42 9.42 0 0 0-3.64-.65c-4.15.07-8.3.06-12.45 0-1 0-1.3.21-1.28 1.25.07 3.7 0 7.4.06 11.09 0 1.3-.4 1.57-1.58 1.51-1.93-.09-3.88-.07-5.82 0-.85 0-1-.25-1-1.07v-33.14c0-.74.17-1 1-1 9 0 18-.17 26.92.11 3.65.12 7.33 1.26 9.23 5a9.09 9.09 0 0 1 .73 6.69c-.71 2.55-2 4.64-4.64 5.62a6.75 6.75 0 0 0-1.38.81zM336.11 526h-1.62c-1.33 0-2.46.3-3.19-1.66-1-2.69-3.71-3.82-6.46-4s-5.35-.43-8 .44a5.13 5.13 0 0 0-3.73 3.29 2.62 2.62 0 0 0 .92 3 11.65 11.65 0 0 0 6 2.11c3 .31 6.07.72 9.1 1.15a27.14 27.14 0 0 1 7 1.81c2.07.89 4 2.05 5 4.11a8.85 8.85 0 0 1 .72 6.53c-1.13 3.93-3.82 5.92-7.48 7.32a31.47 31.47 0 0 1-11.67 1.9 33.94 33.94 0 0 1-9.76-1.13c-3.28-1-6.32-2.6-8.14-5.79a13.36 13.36 0 0 1-1.24-5.19c0-.38.38-.29.61-.29h7.57c.87 0 .85.7.89 1.06.29 3 2.45 4.33 4.85 5.06a16.82 16.82 0 0 0 7.23.93 17.06 17.06 0 0 0 6.44-1.77 3.94 3.94 0 0 0 1.8-4.5c-.27-1.53-1.57-2.18-3-2.67-3.28-1.18-6.72-1.37-10.12-1.9-3-.48-6.14-.75-9-1.9-5.09-2-7.64-5.88-5.68-11.78 1-2.92 3.22-4.38 5.84-5.53 4-1.77 8.27-2 12.53-1.84a27.53 27.53 0 0 1 10 1.89 11.24 11.24 0 0 1 7 7.78c.34 1.34.07 1.66-1.32 1.66zM384.13 539.55h3.79c.38 0 .81-.11.85.55.18 3.23 2.39 4.8 5.1 5.59a17.83 17.83 0 0 0 7 .89 17 17 0 0 0 6.36-1.64 4.41 4.41 0 0 0 2.12-4.22c-.26-1.56-1.6-2.47-3.26-3.14a28 28 0 0 0-6.15-1.34c-2.36-.37-4.74-.65-7.09-1.05-3.87-.66-7.8-1.35-10.45-4.66a7.75 7.75 0 0 1-1.42-7.11c1.19-4.65 4.61-6.52 8.81-7.75a31.93 31.93 0 0 1 9.65-1 25.45 25.45 0 0 1 12.56 3.09 10.89 10.89 0 0 1 4.86 7.29c.1.69 0 1-.78 1h-7a1 1 0 0 1-1.11-.84c-.71-2.45-2.56-3.71-4.93-4.31a20.41 20.41 0 0 0-10 0 4.43 4.43 0 0 0-3.67 4.63 2.43 2.43 0 0 0 1.5 2.15c3.28 1.75 6.9 1.75 10.46 2.18a48.35 48.35 0 0 1 7.43 1.26 21.7 21.7 0 0 1 5 1.89c2.41 1.38 4 3.07 4.36 6a11.29 11.29 0 0 1-.68 5.82 8.64 8.64 0 0 1-3.79 3.94 24.69 24.69 0 0 1-10.65 3.04 56.43 56.43 0 0 1-8.69-.15c-4-.27-7.91-1.32-11.09-4-2.33-2-3.18-4.7-3.55-7.63-.07-.59.32-.43.57-.44 1.28-.05 2.58-.04 3.89-.04zM257.21 494.84a28.19 28.19 0 0 1 1.33-8c.74-2.72 1.26-5.49 1.93-8.22.9-3.67 1.7-7.37 2.59-11l3-12.17c.8-3.33 1.77-6.64 2.39-10 .45-2.43 1.28-4.77 1.54-7.24a12.29 12.29 0 0 0 .51-2.58 1.84 1.84 0 0 0-1.9-1.92h-2.84c-1.27 0-1.77-1-1.24-2.18a3 3 0 0 1 2.66-1.56c2.76-.41 5.53-.72 8.29-1.14 1-.16 2-.52 3.07-.75 1.58-.36 2.49.36 2.21 1.88-.49 2.69-1 5.37-1.66 8s-1.22 5.49-1.84 8.24q-.79 3.48-1.63 6.94c-.49 2-1 4-1.37 6-.46 2.46-1.18 4.87-1.74 7.31-.61 2.66-1.15 5.33-1.75 8-.43 1.93-.91 3.85-1.37 5.78-.8 3.43-1.62 6.85-2.39 10.28a2.64 2.64 0 0 0 1 2.84 2.7 2.7 0 0 0 3.09-.59 26.9 26.9 0 0 0 3.11-4.06 9.39 9.39 0 0 1 1.05-1.2 1.13 1.13 0 0 1 1.37-.1c.44.22.36.68.27 1.08a21.09 21.09 0 0 1-3.48 6.94 19.9 19.9 0 0 1-4.69 4.57 10.24 10.24 0 0 1-7.18 2.13c-2.21-.15-4.26-2.82-4.35-5.43 0-.59.02-1.22.02-1.85zM320.22 495.1a84 84 0 0 1 1.84-9.74c.85-4 2-7.82 2.87-11.78.47-2.18 1.14-4.33 1.61-6.53.68-3.22 1.55-6.4 2.31-9.61 1.14-4.79 2.48-9.54 3.36-14.4a53 53 0 0 1 1.36-5.37c.68-2.33-.24-3.7-2.59-3.7h-1.89c-.63 0-1.38 0-1.49-.88a1.79 1.79 0 0 1 1-2 9.27 9.27 0 0 1 3.17-.84c2.68-.07 5.22-.9 7.83-1.31.88-.14 1.76-.24 2.63-.36 1.13-.16 1.6.48 1.58 1.46a10.88 10.88 0 0 1-.35 3c-1.2 3.87-1.8 7.88-2.76 11.8-.8 3.24-1.48 6.52-2.17 9.79q-1.11 5.23-2.45 10.4c-.79 3.06-1.48 6.16-2.17 9.24s-1.69 6.2-2.16 9.37c-.38 2.54-1.09 5-1.4 7.54a2.91 2.91 0 0 0 .92 2.78c.68.51 2.37-.24 3.32-1.11 1.51-1.36 2.27-3.3 3.78-4.67.46-.41.88-.74 1.43-.43s.55.78.41 1.4c-.74 3.31-2.85 5.75-5 8.24a28.85 28.85 0 0 1-3 2.78 9.22 9.22 0 0 1-8.14 2.18c-2.08-.38-3-2.27-3.59-4.22a15.34 15.34 0 0 1-.26-3.03zM382.14 460h7.93c1.25 0 1.74.36 1.69 1.69-.11 2.92-.82 3.57-3.41 3.48-2-.07-4.06 0-6.09 0a1.15 1.15 0 0 0-1.38 1c-.87 3.77-2 7.46-2.74 11.28-.27 1.45-.74 2.89-1.09 4.35-.63 2.6-1.29 5.2-1.89 7.81-1 4.21-2 8.42-5 11.92a18.16 18.16 0 0 1-7.34 5.59 7.78 7.78 0 0 1-5.34.26c-.71-.24-1.3-.66-1.24-1.52s.59-1.29 1.44-1.48c.57-.12 1.14-.17 1.69-.27 2.08-.39 3.16-2 4.1-3.67 1.87-3.24 2.43-6.92 3.37-10.49.74-2.82 1.11-5.7 1.89-8.5s1.22-5.77 1.85-8.65q.69-3.16 1.51-6.29c.25-1 .16-1.43-1-1.36-1.44.08-2.89 0-4.33 0-2 0-2.27-.34-2.14-2.27a2.72 2.72 0 0 1 3.06-2.87h5c.57 0 1 0 1.15-.79a48 48 0 0 1 2.28-8.81 52.59 52.59 0 0 1 5.8-12.19 27.45 27.45 0 0 1 5.93-6.8 11.22 11.22 0 0 1 7-2.73c1.53 0 3.46-.14 4.19 2a5.6 5.6 0 0 1-.11 3.27c-.44 1.78-.72 3.65-2.28 4.95a2.7 2.7 0 0 1-3.72-.41 11.13 11.13 0 0 0-2.81-3 2.08 2.08 0 0 0-3.09.9c-1.59 3.55-2.05 7.35-2.75 11.12-.44 2.38-.77 4.79-1.3 7.16-.29 1.69-.52 3.45-.83 5.32zM261.54 529v-12.16c0-.9.26-1.15 1.14-1.12 1.89.06 3.79.08 5.68 0 1 0 1.36.24 1.35 1.32-.05 6.63-.09 13.26 0 19.89 0 2.49.33 5 2.21 7a9.18 9.18 0 0 0 4.91 2.34 17.44 17.44 0 0 0 9.82-.7c3.06-1 4.33-3.47 4.66-6.45.65-5.83.14-11.69.28-17.53v-4.87c0-.67.14-1 .89-.95q3.18.07 6.36 0c.74 0 .9.26.9.94 0 7 .16 14-.08 21-.14 4.09-1 8.12-4.75 10.75a20.56 20.56 0 0 1-6 2.64 30.67 30.67 0 0 1-8.85.94c-4.21 0-8.41-.43-12.21-2.5a11.14 11.14 0 0 1-5.52-6.68c-1.55-4.96-.33-9.92-.79-13.86zM396.24 502.4a10.27 10.27 0 0 1-7.37-1.66 10.7 10.7 0 0 1-4.47-7.35c-.62-3.47.1-6.83.63-10.19a35.69 35.69 0 0 1 1.84-5.45 31.64 31.64 0 0 1 9.18-13.53 23.38 23.38 0 0 1 7.35-4.59 21.22 21.22 0 0 1 7-1.3 8.51 8.51 0 0 1 6.83 3c1.24 1.39 1.15 3.32 1 5.1a11.2 11.2 0 0 1-3.3 6.68 20.06 20.06 0 0 1-6.27 4.47 27.69 27.69 0 0 1-3.91 1.85c-3 .89-5.89 2.09-9.06 2.2a1.62 1.62 0 0 0-1.79 1.9c.09 2.08-.27 4.15-.05 6.26a7.93 7.93 0 0 0 6.76 6.53c4.45.45 7.72-1.5 10.7-4.36a5.72 5.72 0 0 1 1.51-1c.49-.24.8-.52 1.28 0a1.11 1.11 0 0 1 .15 1.45c-.75 1.64-2.16 2.7-3.37 3.93a22.74 22.74 0 0 1-8.77 5.39 11.72 11.72 0 0 1-5.87.67z" transform="translate(-153.25 -266.13)"/><path class="cls-1" d="M346.18 502.46c-1.1-.07-2.2.24-3.15-.63a3.54 3.54 0 0 1-1-1.95 12.94 12.94 0 0 1-.4-5.63 83 83 0 0 1 2-9.55c1-3.18 1.55-6.48 2.7-9.64 1-2.7 1.73-5.53 2.57-8.3.58-1.89-.7-3.38-3-3.51a2 2 0 0 1-2-1.43c-.26-.82 1.06-2.17 2.1-2.1 3.24.22 6.36-.82 9.57-.87 1.18 0 2.36-.38 3.54-.5 1-.1 1.32.33 1.08 1.38-.69 3-1.78 5.88-2.68 8.81-1.3 4.28-2.81 8.51-4.06 12.8-.92 3.16-1.38 6.45-2.31 9.63a4.08 4.08 0 0 0 .37 2.48c.29.8 1.64.91 2.59.17a21.65 21.65 0 0 0 3.51-3.88c.11-.14.17-.35.31-.43.57-.3.71-1.5 1.62-1a1.72 1.72 0 0 1 .41 2.32c-2.35 4.79-5.56 8.78-10.49 11.22a7.67 7.67 0 0 1-3.28.61zM241.53 502.46c-3.08 0-4.51-1.56-4.65-4.56s.79-5.79 1.15-8.69c.54-4.39 2.13-8.53 3.32-12.75.82-2.9 1.65-5.82 2.72-8.66a6.78 6.78 0 0 0 .37-2.47c0-.81-1.82-2-3-2.1s-2-.27-2.06-1.56c0-.94 1.12-1.95 2.28-2a85.59 85.59 0 0 0 11.88-1.35c2-.32 2.42.22 1.8 2.24-.94 3.06-1.83 6.15-2.85 9.16s-1.7 5.8-2.66 8.67c-1.29 3.82-2.14 7.79-3.12 11.71a15.13 15.13 0 0 0 0 2.16 1.61 1.61 0 0 0 .8 1.69 2 2 0 0 0 2.21-.43 33.39 33.39 0 0 0 3.23-3.77c.19-.25.33-.57.58-.71.45-.27.55-1.23 1.46-.7s.81 1.18.53 1.92c-.94 2.54-2.66 4.59-4.26 6.73-1.88 2.53-4.58 3.89-7.25 5.29-.86.43-1.76.09-2.48.18zM196.14 515.73h17.58c1 0 1.39.17 1.29 1.24-.12 1.34.42 3.1-.26 3.92s-2.53.25-3.86.27c-3.15 0-6.31.05-9.46 0-1 0-1.36.23-1.35 1.32 0 9 0 18 .06 27 0 1.21-.31 1.54-1.49 1.46a45.78 45.78 0 0 0-5.27 0c-1.11.06-1.43-.24-1.42-1.39.06-6.9 0-13.79 0-20.69v-6.62c0-.9-.26-1.13-1.13-1.12h-12.3c-.91 0-1.3-.18-1.22-1.17a18.39 18.39 0 0 0 0-3.11c-.08-1 .3-1.18 1.22-1.17 5.89.07 11.75.06 17.61.06zM360.91 515.73h17.31c1 0 1.48.17 1.36 1.3a17.74 17.74 0 0 0 0 3.11c.06.86-.26 1.05-1.07 1h-12.17c-1.1 0-1.43.23-1.42 1.39.05 9 0 18 .06 27 0 1.13-.29 1.46-1.41 1.4a46.68 46.68 0 0 0-5.27 0c-1.16.07-1.51-.22-1.5-1.45.06-8.92 0-17.85.07-26.77 0-1.31-.32-1.64-1.62-1.61-4 .09-7.93 0-11.9.05-.84 0-1.22-.16-1.15-1.1a21.7 21.7 0 0 0 0-3.24c-.07-.92.29-1.11 1.14-1.11 5.85.04 11.66.03 17.57.03zM362.2 304.45c.28 1.58-.72 3-.53 4.51 0 .14-.1.42-.2.44-2.2.58-4.42 1.08-6.61 1.7-2 .56-2.74-.91-3.51-2.13-.88-1.39-1.66-2.58-3.59-2.55-.92 0-1.85-.46-2.85-.54s-1-.81-.67-1.61a8.54 8.54 0 0 0 .19-4.71 1.73 1.73 0 0 0-1.4-1.43c-2.76-.69-5.55-1.3-8.32-1.95-.56-.13-1-.36-.9-1.07a12.91 12.91 0 0 0 0-1.49c0-1.7.59-2.07 2.3-2.34 2.79-.44 5.63-.47 8.38-1.2a13.93 13.93 0 0 1 3.77-.52 9.52 9.52 0 0 1 4.95 2.11c2.09 1.48 4 3.17 6.16 4.6a5.89 5.89 0 0 1 2.58 5.29c-.01 1 .52 1.92.25 2.89zM258 309.88a18.77 18.77 0 0 0 .09-5.39c-.46-3 1.4-5.16 3.15-7.21 1.88-2.2 4.6-3.35 7-4.93 1.69-1.13 3.69-1.67 5.3-3a2.65 2.65 0 0 1 2.59-.1c2.22 1 4.71 1.44 6.69 3a1.1 1.1 0 0 1 .51 1c.2 2.27-1 3.48-2.94 4-3.1.87-3.75 3.43-4.44 6.05-.47 1.8-1 3.57-1.67 5.33-.27.77-2.82 1.2-3.63.66-.57-.38-1.05-.87-1.61-1.26-1.8-1.24-3.54-.34-5.11.42a11.12 11.12 0 0 0-3.71 2.93 1.49 1.49 0 0 1-1.73.39c-.91-.32-.24-1.2-.49-1.89zM217.15 441.09v7.85c0 .71-.13 1-.94 1-3.4.09-3.4.12-3.4-3.3v-3.65c0-.69-.17-.94-.9-.93q-5.07.05-10.14 0c-.75 0-.9.28-.89.95v6c0 .78-.24 1-1 1-3.08.06-3.08.09-3.08-2.94v-13.39c0-.94.13-1.34 1.22-1.31 2.86.06 2.86 0 2.86 2.9v3.25c0 .69.17.94.9.93q5.07-.05 10.14 0c.75 0 .9-.28.89-.95v-5.14c0-.78.24-1 1-1 3.35-.07 3.35-.1 3.35 3.21q-.01 2.75-.01 5.52zM221.21 441.2v-7.85c0-.74.16-1 1-1 5.05 0 10.1.05 15.15 0 1.4 0 .86.92.95 1.55s0 1.22-1 1.2c-3.52-.07-7 0-10.55 0-.85 0-1.16.17-1.16 1.1 0 3.25 0 3.25 3.18 3.25 2.66 0 5.32.07 8 0 1.31 0 1 .75 1 1.47s0 1.32-1.09 1.29c-3.29-.08-6.58 0-9.87-.06-1.05 0-1.32.31-1.24 1.29a17.54 17.54 0 0 1 0 2.84c-.06.84.22 1.07 1.06 1.06h10.69c1.15 0 1.3.4 1.3 1.38s-.16 1.4-1.3 1.38c-5-.07-9.92-.06-14.88 0-.95 0-1.22-.25-1.2-1.2.01-2.65-.04-5.18-.04-7.7zM185.54 432.36c2.75 0 5.5.08 8.24 0 1.32-.06 1.13.65 1.19 1.48.07 1-.19 1.35-1.24 1.29-1.66-.1-3.33 0-5 0-.91 0-1.12.28-1.11 1.14v12.56c0 .91-.18 1.23-1.17 1.23-3.18 0-3.18 0-3.18-3.11v-10.54c0-1-.17-1.36-1.24-1.29-1.57.1-3.16-.05-4.73.05-1.15.08-1.39-.31-1.42-1.41s.44-1.37 1.48-1.34c2.78-.02 5.48-.06 8.18-.06zM260.48 441.22c.08.55-.36 1.11-.7 1.66a22.46 22.46 0 0 1-5.22 5.82c-.82.65-1.3.66-2.07-.24-1.47-1.73-1.94-3.82-2.55-5.87-.31-1 .32-2 .84-2.84a21.43 21.43 0 0 1 5.22-5.49 1.08 1.08 0 0 1 1.66.07 13.63 13.63 0 0 1 2.82 6.89zM364.93 441.19c.11 1.58-1.08 2.5-1.8 3.62a18.54 18.54 0 0 1-4.36 4.09c-1.08.86-1.67-.31-2.11-.95-1.16-1.7-1.52-3.76-2.24-5.67-.26-.7.3-1.43.63-2a25.86 25.86 0 0 1 5.47-6.08 1.19 1.19 0 0 1 1.77.23 10.37 10.37 0 0 1 2.31 4.81 3.72 3.72 0 0 1 .33 1.95zM318.92 414.17c0 2-.34 2.14-2.43 2-2.81-.23-5-1.65-7.3-3.05-.57-.36-.44-1.12 0-1.63.21-.28.22-1 1-.54a14.23 14.23 0 0 0 6.9 1.41c1.83-.05 1.83-.03 1.83 1.81z" transform="translate(-153.25 -266.13)"/><path d="M330.07 362c.05-.25-.32-.92.26-1.24s1.07.25 1.53.51c1.56.88 2.73.34 2.75-1.39 0-.93.31-1.12 1.12-.74a45.62 45.62 0 0 1 5.44 2.52c.61.38 1.13.67 1.33 1.41a4.27 4.27 0 0 0 .68 1.57c.53.67.48 1-.27 1.45s-1.28 1.42-2 2.08c-1.23 1.12-1.9 1.34-3.45.89a14.63 14.63 0 0 1-5.71-3.21 4.09 4.09 0 0 1-1.68-3.85zM301 366.89a.57.57 0 0 1-.23.6 13.93 13.93 0 0 0-2.89 2.85c-.77.88-1.57.33-2.35 0-2-.78-4.22-1.2-5.73-3.11a8.53 8.53 0 0 1-1.51-3.65.64.64 0 0 1 .42-.76c.24-.09.44 0 .68.22a3.17 3.17 0 0 0 1.35.78c1.75.45 2.41-.1 2.41-1.92 0-.9-.21-1.77 1.21-.8a23.84 23.84 0 0 0 3.94 1.81 8 8 0 0 1 2.7 3.98zM306.49 465.83c-.68 2-.41 4.5-1 6.88-.64 2.73-1.11 5.51-1.8 8.23a22.89 22.89 0 0 1-1.63 4.27 37.66 37.66 0 0 1-2.1 4.52c-1.7 2.58-3.72 4.76-6.91 5.41-1.77.36-4.13-1.44-4.47-3.35-.83-4.68 0-9.14 1.36-13.64a47.16 47.16 0 0 1 3.29-8c1.61-3.08 3.52-6 6.68-7.78a5.19 5.19 0 0 1 2.49-.78c3.09.04 3.88.69 4.09 4.24zM179.75 479.3a19.7 19.7 0 0 1 2.57-9.74 6 6 0 0 1 3.53-2.76 1 1 0 0 1 1 .11c.32.29.18.59.09 1-.87 3.37-1.41 6.81-2 10.24a25.79 25.79 0 0 0-.89 4.28 1.44 1.44 0 0 1-1.34 1.4 2.29 2.29 0 0 1-2.34-1.53 6.36 6.36 0 0 1-.62-3zM235.05 531.42h-7.71c-.74 0-1-.17-1-1q.07-4.19 0-8.39c0-.8.28-1 1-1 4.69 0 9.38-.09 14.06.06 2.28.07 4.8.47 5.67 3 1.36 4-.09 6.64-4.32 7.14a66.14 66.14 0 0 1-7.7.19zM394.79 478.41a35.23 35.23 0 0 1 3.47-9.27 17.06 17.06 0 0 1 5.42-6.12 4.93 4.93 0 0 1 4.67-.55c1.05.44 1.39 1.76 1.5 2.89.28 3.06-1.06 5.53-3 7.75a17.82 17.82 0 0 1-8.35 5.1c-1.17.39-2.39.04-3.71.2z" transform="translate(-153.25 -266.13)"/></svg>
